<?xml version="1.0" encoding="UTF-8"?>
<!-- Generator: visioncortex VTracer -->
<svg id="svg" version="1.1" xmlns="http://www.w3.org/2000/svg" viewBox="0 0 8532 1388" style="display: block;">
    <path
        d="M0,0 L464,0 L497,3 L529,8 L556,14 L586,23 L607,31 L627,40 L652,53 L671,65 L690,79 L704,91 L719,105 L733,120 L744,134 L757,152 L771,176 L784,203 L793,227 L800,251 L806,278 L810,305 L812,330 L812,376 L810,401 L805,433 L799,458 L792,481 L782,506 L773,525 L761,546 L750,562 L741,574 L730,587 L719,599 L706,612 L695,621 L683,631 L664,644 L644,656 L623,667 L594,679 L567,688 L535,696 L499,702 L468,705 L447,706 L232,707 L229,709 L228,712 L227,1087 L223,1094 L215,1098 L2,1098 L-4,1095 L-9,1089 L-10,1086 L-10,12 L-6,4 Z M235,205 L230,207 L227,212 L227,494 L229,498 L233,500 L430,500 L456,497 L480,491 L500,483 L514,475 L525,467 L535,458 L544,449 L555,433 L563,418 L570,397 L574,377 L575,367 L575,340 L572,318 L568,303 L562,287 L553,270 L544,258 L535,248 L528,241 L513,230 L492,219 L468,211 L447,207 L423,205 Z "
        transform="translate(6081,0)" style="fill: #007136;" />
    <path
        d="M0,0 L463,0 L497,3 L533,9 L563,16 L599,28 L625,39 L648,51 L669,64 L684,75 L694,83 L708,95 L729,116 L738,127 L751,144 L765,166 L779,193 L789,217 L798,245 L805,275 L809,301 L811,322 L812,345 L812,362 L810,396 L806,425 L800,453 L791,482 L781,507 L772,526 L761,545 L751,560 L742,572 L733,583 L724,593 L713,605 L705,612 L694,622 L674,637 L654,650 L636,660 L609,673 L582,683 L555,691 L529,697 L498,702 L468,705 L447,706 L232,707 L228,710 L227,1084 L224,1092 L218,1097 L215,1098 L2,1098 L-6,1094 L-10,1088 L-10,10 L-6,4 L-3,1 Z M234,205 L228,208 L227,210 L227,495 L230,499 L233,500 L429,500 L455,497 L476,492 L495,485 L512,476 L526,466 L539,454 L551,439 L560,423 L568,403 L573,380 L574,373 L574,334 L570,311 L563,290 L552,269 L542,256 L532,245 L518,234 L507,227 L491,219 L475,213 L453,208 L438,206 L422,205 Z "
        transform="translate(10,0)" style="fill: #007136;" />
    <path
        d="M0,0 L210,0 L220,5 L224,11 L231,35 L257,129 L283,223 L309,317 L335,411 L354,480 L356,480 L383,386 L418,264 L451,149 L484,34 L491,11 L498,3 L506,0 L654,0 L662,4 L667,10 L672,25 L696,107 L721,192 L746,277 L773,369 L798,454 L805,478 L805,481 L808,481 L810,471 L834,379 L858,288 L886,181 L906,105 L930,14 L935,5 L941,1 L945,0 L1154,0 L1160,3 L1163,7 L1163,16 L1032,409 L1018,452 L912,770 L906,778 L898,782 L728,782 L720,778 L716,773 L712,764 L686,676 L659,584 L634,499 L609,414 L584,329 L580,315 L580,312 L577,312 L573,328 L549,407 L528,477 L503,560 L478,643 L453,726 L440,769 L434,777 L429,781 L425,782 L258,782 L251,779 L246,774 L241,764 L194,623 L180,580 L43,169 L29,126 L-8,15 L-8,7 L-3,1 Z "
        transform="translate(3046,316)" style="fill: #007135;" />
    <path
        d="M0,0 L51,0 L92,2 L131,6 L166,12 L192,18 L228,30 L248,39 L268,50 L285,62 L298,73 L315,90 L327,106 L336,121 L344,136 L353,159 L360,184 L365,209 L369,245 L370,265 L370,787 L366,795 L361,799 L358,800 L171,800 L164,797 L160,792 L158,786 L157,733 L148,744 L132,760 L115,773 L99,783 L82,792 L59,801 L39,807 L17,812 L-12,816 L-43,818 L-69,818 L-97,816 L-124,812 L-149,806 L-179,796 L-206,783 L-222,773 L-238,761 L-250,750 L-264,736 L-277,719 L-289,699 L-298,680 L-307,653 L-313,624 L-315,606 L-316,590 L-316,567 L-314,541 L-310,517 L-304,494 L-296,473 L-288,457 L-282,446 L-270,429 L-259,416 L-241,398 L-224,385 L-207,374 L-184,362 L-161,352 L-133,343 L-104,336 L-75,331 L-35,327 L-14,326 L150,325 L154,321 L154,272 L151,253 L146,238 L139,225 L128,213 L116,204 L99,196 L79,190 L58,186 L26,183 L-27,183 L-57,186 L-88,192 L-115,200 L-139,210 L-160,221 L-175,231 L-181,235 L-190,236 L-196,232 L-202,223 L-216,198 L-230,174 L-242,152 L-254,131 L-270,103 L-273,96 L-273,85 L-266,77 L-249,66 L-230,55 L-214,47 L-197,39 L-168,28 L-138,19 L-108,12 L-73,6 L-36,2 Z M19,477 L-7,479 L-30,483 L-50,489 L-66,497 L-77,505 L-86,514 L-94,527 L-99,542 L-101,554 L-101,576 L-98,592 L-91,608 L-83,618 L-76,625 L-62,634 L-47,640 L-26,645 L-10,647 L35,647 L60,644 L82,639 L98,633 L112,626 L124,617 L136,605 L143,594 L149,581 L153,567 L155,554 L155,482 L152,478 L149,477 Z "
        transform="translate(1212,298)" style="fill: #007136;" />
    <path
        d="M0,0 L51,0 L92,2 L131,6 L166,12 L192,18 L228,30 L248,39 L263,47 L281,59 L295,70 L315,90 L327,106 L339,126 L347,143 L355,165 L362,192 L367,223 L369,245 L370,265 L370,787 L366,795 L361,799 L358,800 L171,800 L164,797 L160,792 L158,786 L157,733 L149,743 L132,760 L118,771 L101,782 L82,792 L59,801 L39,807 L17,812 L-12,816 L-43,818 L-69,818 L-97,816 L-124,812 L-149,806 L-179,796 L-206,783 L-222,773 L-238,761 L-250,750 L-264,736 L-277,719 L-289,699 L-298,680 L-307,653 L-312,630 L-315,606 L-316,589 L-316,568 L-314,541 L-310,517 L-304,494 L-296,473 L-288,457 L-280,443 L-270,429 L-259,416 L-242,399 L-228,388 L-215,379 L-198,369 L-171,356 L-143,346 L-117,339 L-88,333 L-58,329 L-35,327 L-14,326 L150,325 L154,321 L154,272 L151,253 L146,238 L139,225 L128,213 L116,204 L99,196 L79,190 L58,186 L26,183 L-27,183 L-57,186 L-88,192 L-115,200 L-139,210 L-160,221 L-175,231 L-181,235 L-190,236 L-196,232 L-202,223 L-216,198 L-232,170 L-246,145 L-258,124 L-271,101 L-273,96 L-273,85 L-266,77 L-249,66 L-230,55 L-214,47 L-197,39 L-168,28 L-138,19 L-108,12 L-73,6 L-36,2 Z M19,477 L-7,479 L-30,483 L-50,489 L-66,497 L-77,505 L-86,514 L-94,527 L-99,542 L-101,554 L-101,576 L-98,592 L-91,608 L-83,618 L-76,625 L-62,634 L-47,640 L-26,645 L-10,647 L35,647 L60,644 L82,639 L103,631 L118,622 L130,611 L139,601 L148,584 L153,567 L155,554 L155,482 L152,478 L149,477 Z "
        transform="translate(2549,298)" style="fill: #007136;" />
    <path
        d="M0,0 L52,0 L92,2 L131,6 L167,12 L199,20 L226,29 L246,38 L267,49 L283,60 L294,69 L306,80 L318,93 L330,110 L340,127 L350,149 L358,174 L364,200 L368,228 L370,253 L370,789 L366,796 L358,800 L171,800 L163,796 L159,789 L158,733 L149,743 L142,751 L129,763 L110,777 L92,787 L73,796 L54,803 L27,810 L-2,815 L-22,817 L-42,818 L-68,818 L-97,816 L-129,811 L-159,803 L-183,794 L-202,785 L-220,774 L-234,764 L-249,751 L-261,739 L-272,725 L-284,707 L-294,688 L-302,667 L-308,647 L-312,627 L-315,600 L-315,557 L-312,530 L-307,506 L-297,476 L-288,457 L-277,439 L-267,426 L-255,412 L-245,402 L-234,393 L-221,383 L-201,371 L-182,361 L-157,351 L-136,344 L-108,337 L-81,332 L-47,328 L-14,326 L151,325 L154,324 L155,319 L155,280 L153,260 L149,244 L141,228 L133,217 L124,209 L109,200 L91,193 L70,188 L41,184 L26,183 L-27,183 L-56,186 L-83,191 L-108,198 L-130,206 L-149,215 L-166,225 L-180,235 L-189,236 L-196,232 L-206,215 L-220,190 L-234,166 L-250,137 L-262,116 L-272,98 L-273,94 L-273,87 L-270,81 L-261,74 L-242,62 L-220,50 L-199,40 L-173,30 L-145,21 L-117,14 L-86,8 L-47,3 L-22,1 Z M19,477 L-6,479 L-29,483 L-46,488 L-58,493 L-69,499 L-82,510 L-90,521 L-96,533 L-100,550 L-101,569 L-99,586 L-94,601 L-87,613 L-78,623 L-65,632 L-50,639 L-31,644 L-10,647 L36,647 L61,644 L86,638 L105,630 L117,623 L128,614 L138,603 L146,589 L151,577 L155,558 L156,547 L156,484 L153,479 L150,477 Z "
        transform="translate(7283,298)" style="fill: #007136;" />
    <path
        d="M0,0 L52,0 L92,2 L123,5 L157,10 L184,16 L209,23 L231,31 L251,40 L270,51 L287,63 L301,75 L313,87 L324,101 L334,116 L345,137 L355,163 L361,185 L366,212 L369,237 L370,251 L370,789 L366,796 L358,800 L171,800 L165,797 L160,791 L159,788 L158,733 L145,748 L136,757 L125,766 L110,777 L89,789 L68,798 L44,806 L17,812 L-11,816 L-42,818 L-68,818 L-97,816 L-123,812 L-149,806 L-176,797 L-200,786 L-217,776 L-231,766 L-242,757 L-254,746 L-266,733 L-277,718 L-286,703 L-294,687 L-302,667 L-308,646 L-312,626 L-314,611 L-315,598 L-315,559 L-313,538 L-309,515 L-303,493 L-295,472 L-287,456 L-277,439 L-267,426 L-255,412 L-246,403 L-235,394 L-222,384 L-203,372 L-182,361 L-157,351 L-136,344 L-108,337 L-81,332 L-47,328 L-14,326 L151,325 L154,322 L155,320 L155,278 L153,260 L148,241 L140,226 L132,216 L121,207 L107,199 L91,193 L70,188 L51,185 L26,183 L-27,183 L-56,186 L-83,191 L-108,198 L-130,206 L-149,215 L-169,227 L-180,235 L-189,236 L-196,232 L-211,206 L-225,181 L-237,160 L-250,137 L-266,109 L-272,98 L-273,94 L-273,87 L-269,80 L-255,70 L-240,61 L-222,51 L-199,40 L-170,29 L-141,20 L-112,13 L-79,7 L-47,3 L-22,1 Z M19,477 L-6,479 L-29,483 L-49,489 L-65,497 L-74,503 L-82,510 L-90,521 L-95,531 L-99,545 L-100,551 L-100,580 L-96,596 L-89,610 L-79,622 L-65,632 L-52,638 L-36,643 L-19,646 L-10,647 L36,647 L61,644 L86,638 L101,632 L114,625 L126,616 L135,607 L145,592 L151,577 L155,559 L156,549 L156,484 L153,479 L150,477 Z "
        transform="translate(4612,298)" style="fill: #007136;" />
    <path
        d="M0,0 L33,0 L57,2 L87,7 L112,14 L133,22 L152,31 L170,42 L186,54 L200,66 L211,77 L220,88 L230,101 L242,120 L253,141 L263,166 L270,189 L276,215 L280,243 L282,267 L282,788 L278,796 L270,800 L68,800 L62,797 L58,793 L56,787 L55,315 L52,292 L47,273 L41,257 L33,242 L24,230 L18,223 L4,212 L-6,206 L-21,200 L-37,196 L-52,194 L-75,194 L-95,197 L-116,204 L-129,211 L-141,220 L-148,226 L-157,237 L-166,251 L-173,266 L-179,284 L-183,305 L-184,313 L-185,334 L-186,790 L-190,796 L-194,799 L-198,800 L-399,800 L-407,796 L-411,789 L-411,29 L-408,23 L-403,19 L-400,18 L-197,18 L-191,21 L-187,26 L-186,28 L-186,89 L-184,89 L-182,85 L-173,74 L-155,56 L-138,43 L-120,32 L-104,24 L-90,18 L-66,10 L-44,5 L-15,1 Z "
        transform="translate(5591,298)" style="fill: #007136;" />
    <path
        d="M0,0 L216,0 L223,4 L228,10 L234,25 L251,75 L266,118 L281,162 L296,205 L311,249 L326,292 L341,336 L356,379 L379,446 L386,466 L386,468 L389,468 L391,459 L411,397 L429,340 L451,272 L469,215 L491,147 L509,90 L531,22 L535,11 L540,4 L548,0 L758,0 L764,3 L766,6 L766,17 L753,51 L731,109 L714,154 L695,204 L678,249 L659,299 L642,344 L623,394 L606,439 L587,489 L570,534 L551,584 L534,629 L515,679 L498,724 L479,774 L462,819 L444,866 L432,894 L418,923 L406,946 L391,970 L379,986 L370,997 L359,1009 L350,1018 L339,1027 L325,1037 L304,1049 L279,1059 L257,1065 L235,1069 L206,1072 L114,1072 L108,1068 L104,1060 L104,894 L107,887 L113,882 L116,881 L169,880 L188,877 L204,872 L217,865 L227,857 L234,850 L244,836 L252,820 L258,805 L278,749 L280,742 L248,662 L229,614 L186,506 L148,411 L126,355 L90,265 L47,157 L5,52 L-9,16 L-9,8 L-5,2 Z "
        transform="translate(7766,316)" style="fill: #007135;" />
    <path
        d="M0,0 L205,0 L212,4 L215,9 L216,13 L217,858 L220,874 L225,887 L231,896 L240,904 L250,909 L265,913 L276,914 L322,915 L329,919 L333,927 L333,1096 L330,1102 L325,1106 L319,1108 L220,1108 L184,1106 L155,1102 L129,1096 L108,1089 L90,1081 L74,1072 L62,1063 L48,1051 L38,1040 L27,1025 L18,1009 L10,992 L2,968 L-4,942 L-8,914 L-10,887 L-10,11 L-7,5 L-2,1 Z "
        transform="translate(1786,0)" style="fill: #007236;" />
</svg>